<svg baseProfile="tiny" xmlns="http://www.w3.org/2000/svg" width="218" height="76" viewBox="371 242 218 76"><path d="M373.7 302.6l3.6 9.2 3.3-9.2h1.3l-4.7 12.4c-.2.5-.4.9-.5 1.1-.2.3-.3.5-.6.7-.2.2-.4.3-.7.4-.3.1-.6.1-1 .1h-.6c-.1 0-.3 0-.4-.1v-1.1l.5.1h.5c.3 0 .5-.1.7-.1l.5-.3s.3-.3.3-.5c.1-.2.2-.4.3-.7l.5-1.2-4.3-10.8h1.3zm17.3.1c.6.3 1.2.7 1.6 1.2s.8 1.1 1 1.8c.2.7.3 1.4.3 2.2s-.1 1.5-.3 2.2c-.2.7-.6 1.3-1 1.8s-1 .9-1.6 1.2-1.4.5-2.2.5-1.5-.2-2.2-.5-1.2-.7-1.6-1.2c-.4-.5-.8-1.1-1-1.8-.2-.7-.3-1.4-.3-2.2s.1-1.5.3-2.2c.2-.7.6-1.3 1-1.8s1-.9 1.6-1.2c.6-.3 1.4-.5 2.2-.5.8.1 1.5.2 2.2.5zm-3.9 1.1c-.5.3-.9.6-1.2 1-.3.4-.6.9-.7 1.5-.2.6-.2 1.1-.2 1.7s.1 1.1.2 1.7c.2.6.4 1 .7 1.5.3.4.7.8 1.2 1 .5.3 1 .4 1.7.4s1.2-.1 1.7-.4.9-.6 1.2-1c.3-.4.6-.9.7-1.5.2-.6.2-1.1.2-1.7 0-.6-.1-1.1-.2-1.7-.2-.6-.4-1-.7-1.5-.3-.4-.7-.8-1.2-1-.5-.3-1-.4-1.7-.4s-1.2.1-1.7.4zm17.4 9.6v-1.9h-.1c-.3.7-.9 1.3-1.5 1.7-.7.4-1.4.6-2.2.6-.7 0-1.3-.1-1.8-.3-.5-.2-.9-.5-1.2-.8-.3-.3-.5-.8-.7-1.3-.1-.5-.2-1.1-.2-1.7v-7h1.3v7c0 1 .3 1.7.7 2.2s1.2.7 2.2.7c.6 0 1.1-.1 1.5-.4.4-.2.7-.6 1-1 .3-.4.5-.9.6-1.4.1-.5.2-1.1.2-1.6v-5.7h1.3v10.8l-1.1.1zm5.9-10.8v2.5h.1c.3-.9.9-1.5 1.6-2 .7-.5 1.5-.7 2.5-.6v1.3c-.6 0-1.1.1-1.6.2-.5.2-.9.5-1.3.8-.3.3-.6.8-.8 1.3-.2.5-.3 1-.3 1.6v5.8h-1.3v-10.8h1.1v-.1zm21.1.1c.6.3 1.2.7 1.6 1.2.4.5.8 1.1 1 1.8.2.7.3 1.4.3 2.2s-.1 1.5-.3 2.2c-.2.7-.6 1.3-1 1.8s-1 .9-1.6 1.2c-.6.3-1.4.5-2.2.5s-1.5-.2-2.2-.5c-.6-.3-1.2-.7-1.6-1.2-.4-.5-.8-1.1-1-1.8-.2-.7-.3-1.4-.3-2.2s.1-1.5.3-2.2c.2-.7.6-1.3 1-1.8s1-.9 1.6-1.2c.6-.3 1.4-.5 2.2-.5.9.1 1.6.2 2.2.5zm-3.8 1.1c-.5.3-.9.6-1.2 1-.3.4-.6.9-.7 1.5-.2.6-.2 1.1-.2 1.7s.1 1.1.2 1.7c.2.6.4 1 .7 1.5s.7.8 1.2 1c.5.3 1 .4 1.7.4.6 0 1.2-.1 1.7-.4s.9-.6 1.2-1c.3-.4.6-.9.7-1.5.2-.6.2-1.1.2-1.7 0-.6-.1-1.1-.2-1.7-.2-.6-.4-1-.7-1.5-.3-.4-.7-.8-1.2-1-.5-.3-1-.4-1.7-.4s-1.3.1-1.7.4zm11-1.2v1.9h.1c.2-.7.7-1.2 1.3-1.6.6-.4 1.4-.6 2.1-.6s1.4.1 1.9.3c.5.2.9.5 1.2.8.3.3.5.8.6 1.3.1.5.2 1.1.2 1.7v7h-1.3v-6.7c0-.5-.1-.9-.1-1.3-.1-.4-.2-.7-.4-1-.2-.3-.5-.5-.9-.7-.3-.2-.8-.2-1.3-.2s-1 .1-1.4.3-.8.5-1 .8c-.3.3-.5.7-.7 1.2-.2.5-.2.9-.3 1.5v6.3h-1.3v-10.8l1.3-.2zm12.4-4.2v15h-1.3v-15h1.3zm4.9 0v2.1h-1.3v-2.1h1.3zm0 4.2v10.8h-1.3v-10.8h1.3zm4.9 0v1.9h.1c.2-.7.7-1.2 1.3-1.6.6-.4 1.4-.6 2.1-.6s1.4.1 1.9.3c.5.2.9.5 1.2.8.3.3.5.8.6 1.3.1.5.2 1.1.2 1.7v7h-1.3v-6.7c0-.5-.1-.9-.1-1.3-.1-.4-.2-.7-.4-1-.2-.3-.5-.5-.9-.7-.3-.2-.8-.2-1.3-.2s-1 .1-1.4.3-.8.5-1 .8c-.3.3-.5.7-.7 1.2-.2.5-.2.9-.3 1.5v6.3h-1.3v-10.8l1.3-.2zm11.9 7.2c.1.5.3 1 .6 1.4.3.4.7.7 1.1 1s1 .4 1.6.4c1 0 1.7-.2 2.3-.7.5-.5.9-1.2 1.1-2h1.3c-.3 1.2-.8 2.2-1.5 2.9-.7.7-1.8 1-3.2 1-.9 0-1.6-.2-2.2-.5s-1.1-.7-1.5-1.2c-.4-.5-.7-1.1-.9-1.8-.2-.7-.3-1.4-.3-2.2 0-.7.1-1.4.3-2.1.2-.7.5-1.3.9-1.8s.9-1 1.5-1.3c.6-.3 1.4-.5 2.2-.5.9 0 1.6.2 2.2.5.6.3 1.1.8 1.5 1.4.4.6.7 1.2.8 1.9.2.7.2 1.5.2 2.2h-8.3c.2.4.2.9.3 1.4zm6.6-4c-.2-.5-.4-.9-.7-1.2-.3-.3-.6-.6-1.1-.9s-.9-.3-1.4-.3c-.5 0-1 .1-1.4.3s-.8.5-1.1.9c-.3.3-.5.8-.7 1.2-.2.5-.3.9-.3 1.4h7c-.1-.5-.2-1-.3-1.4zm13.6-7.4v6.2h.1c.1-.4.3-.7.6-1 .3-.3.6-.5.9-.7.3-.2.7-.3 1.1-.5.4-.1.8-.2 1.2-.2.8 0 1.5.2 2.2.5.6.3 1.1.7 1.5 1.3.4.5.7 1.1.9 1.8.2.7.3 1.4.3 2.2s-.1 1.5-.3 2.2c-.2.7-.5 1.3-.9 1.8s-.9.9-1.5 1.2-1.3.5-2.2.5c-.9 0-1.7-.2-2.3-.6s-1.2-1-1.5-1.7h-.1v2.1h-1.2v-15l1.2-.1zm7.2 7.9c-.1-.6-.3-1-.6-1.5-.3-.4-.6-.8-1.1-1.1-.5-.3-1-.4-1.6-.4-.7 0-1.3.1-1.8.4s-.9.6-1.2 1.1c-.3.4-.5.9-.6 1.5-.1.6-.2 1.1-.2 1.7 0 .6.1 1.1.2 1.7.1.6.3 1 .6 1.5.3.4.7.8 1.2 1.1.5.3 1.1.4 1.8.4.6 0 1.2-.1 1.6-.4.5-.3.8-.6 1.1-1.1.3-.4.5-.9.6-1.5.1-.6.2-1.1.2-1.7 0-.6-.1-1.2-.2-1.7zm11.3-3.6c.6.3 1.2.7 1.6 1.2s.8 1.1 1 1.8c.2.7.3 1.4.3 2.2s-.1 1.5-.3 2.2c-.2.7-.6 1.3-1 1.8s-1 .9-1.6 1.2c-.6.3-1.4.5-2.2.5-.8 0-1.5-.2-2.2-.5-.6-.3-1.2-.7-1.6-1.2-.4-.5-.8-1.1-1-1.8-.2-.7-.3-1.4-.3-2.2s.1-1.5.3-2.2c.2-.7.6-1.3 1-1.8s1-.9 1.6-1.2c.6-.3 1.4-.5 2.2-.5.9.1 1.6.2 2.2.5zm-3.8 1.1c-.5.3-.9.6-1.2 1-.3.4-.6.9-.7 1.5-.2.6-.2 1.1-.2 1.7s.1 1.1.2 1.7c.2.6.4 1 .7 1.5.3.4.7.8 1.2 1 .5.3 1 .4 1.7.4.6 0 1.2-.1 1.7-.4s.9-.6 1.2-1c.3-.4.6-.9.7-1.5.2-.6.2-1.1.2-1.7 0-.6-.1-1.1-.2-1.7-.2-.6-.4-1-.7-1.5-.3-.4-.7-.8-1.2-1-.5-.3-1-.4-1.7-.4s-1.2.1-1.7.4zm16.5-1.1c.6.3 1.2.7 1.6 1.2s.8 1.1 1 1.8c.2.7.3 1.4.3 2.2s-.1 1.5-.3 2.2c-.2.7-.6 1.3-1 1.8s-1 .9-1.6 1.2-1.4.5-2.2.5c-.8 0-1.5-.2-2.2-.5-.6-.3-1.2-.7-1.6-1.2-.4-.5-.8-1.1-1-1.8-.2-.7-.3-1.4-.3-2.2s.1-1.5.3-2.2c.2-.7.6-1.3 1-1.8s1-.9 1.6-1.2c.6-.3 1.4-.5 2.2-.5.9.1 1.6.2 2.2.5zm-3.8 1.1c-.5.3-.9.6-1.2 1-.3.4-.6.9-.7 1.5-.2.6-.2 1.1-.2 1.7s.1 1.1.2 1.7c.2.6.4 1 .7 1.5.3.4.7.8 1.2 1 .5.3 1 .4 1.7.4s1.2-.1 1.7-.4.9-.6 1.2-1c.3-.4.6-.9.7-1.5.2-.6.2-1.1.2-1.7 0-.6-.1-1.1-.2-1.7-.2-.6-.4-1-.7-1.5-.3-.4-.7-.8-1.2-1-.5-.3-1-.4-1.7-.4s-1.2.1-1.7.4zm11.1-5.4v9.4l6-5.2h1.8l-4.6 4 4.9 6.8h-1.7l-4.3-5.9-2.1 1.8v4.1h-1.3v-15h1.3zm16.4 6.3c-.2-.3-.3-.6-.6-.7-.3-.2-.6-.3-.9-.4-.3-.1-.7-.1-1.1-.1-.3 0-.6 0-.9.1-.3.1-.6.2-.8.3-.2.1-.5.3-.6.6-.2.2-.2.5-.2.9 0 .3.1.5.2.7.1.2.3.4.6.5.2.1.5.3.7.3.3.1.5.2.7.2l1.8.4 1.1.3c.4.2.7.3 1 .6.3.2.5.5.7.9.2.3.3.8.3 1.2 0 .6-.1 1.1-.4 1.5-.3.4-.6.7-1 1s-.9.5-1.4.6c-.5.1-1 .2-1.5.2-1.3 0-2.3-.3-3.1-.9-.8-.6-1.2-1.6-1.4-2.9h1.3c.1.9.4 1.6 1 2 .6.5 1.3.7 2.2.7.3 0 .6 0 1-.1l1-.3c.3-.2.5-.4.7-.6s.3-.6.3-1c0-.3-.1-.6-.2-.8s-.3-.4-.5-.5c-.2-.1-.5-.3-.8-.4-.3-.1-.6-.2-.9-.2l-1.7-.4c-.4-.1-.8-.2-1.2-.4s-.7-.3-1-.5-.5-.5-.6-.8c-.2-.3-.2-.7-.2-1.2s.1-1 .4-1.4c.2-.4.6-.7 1-.9.4-.2.8-.4 1.3-.5.5-.1 1-.2 1.4-.2.5 0 1 .1 1.5.2s.9.3 1.2.6c.3.3.6.7.9 1.1s.3.9.3 1.5h-1.3c-.1-.6-.2-.9-.3-1.2zm6.2-6.3v6h.1c.2-.7.7-1.2 1.3-1.6.6-.4 1.4-.6 2.1-.6s1.4.1 1.9.3c.5.2.9.5 1.2.8.3.3.5.8.6 1.3.1.5.2 1.1.2 1.7v7h-1.3v-6.7c0-.5-.1-.9-.1-1.3-.1-.4-.2-.7-.4-1-.2-.3-.5-.5-.9-.7-.3-.2-.8-.2-1.3-.2s-1 .1-1.4.3c-.4.2-.8.5-1 .8-.3.3-.5.7-.7 1.2-.2.5-.2.9-.3 1.5v6.3h-1.3v-15h1.3v-.1zm17.7 4.3c.6.3 1.2.7 1.6 1.2s.8 1.1 1 1.8c.2.7.3 1.4.3 2.2s-.1 1.5-.3 2.2c-.2.7-.6 1.3-1 1.8s-1 .9-1.6 1.2-1.4.5-2.2.5c-.8 0-1.5-.2-2.2-.5s-1.2-.7-1.6-1.2c-.4-.5-.8-1.1-1-1.8-.2-.7-.3-1.4-.3-2.2s.1-1.5.3-2.2c.2-.7.6-1.3 1-1.8s1-.9 1.6-1.2c.6-.3 1.4-.5 2.2-.5.9.1 1.6.2 2.2.5zm-3.8 1.1c-.5.3-.9.6-1.2 1-.3.4-.6.9-.7 1.5-.2.6-.2 1.1-.2 1.7s.1 1.1.2 1.7c.2.6.4 1 .7 1.5s.7.8 1.2 1c.5.3 1 .4 1.7.4s1.2-.1 1.7-.4c.5-.3.9-.6 1.2-1 .3-.4.6-.9.7-1.5.2-.6.2-1.1.2-1.7 0-.6-.1-1.1-.2-1.7-.2-.6-.4-1-.7-1.5-.3-.4-.7-.8-1.2-1-.5-.3-1-.4-1.7-.4s-1.2.1-1.7.4zm11-1.2v2.1h.1c.3-.7.8-1.3 1.5-1.8.7-.4 1.5-.6 2.3-.6.8 0 1.5.2 2.2.5.6.3 1.1.7 1.5 1.3.4.5.7 1.1.9 1.8.2.7.3 1.4.3 2.2s-.1 1.5-.3 2.2-.5 1.3-.9 1.8-.9.9-1.5 1.2c-.6.3-1.3.5-2.2.5-.4 0-.8-.1-1.2-.2-.4-.1-.7-.2-1.1-.4l-.9-.7c-.3-.3-.5-.6-.6-1h-.1v6h-1.3v-14.8l1.3-.1zm7.2 3.7c-.1-.6-.3-1-.6-1.5-.3-.4-.6-.8-1.1-1.1-.5-.3-1-.4-1.6-.4-.7 0-1.3.1-1.8.4-.5.2-.9.6-1.2 1-.3.4-.5.9-.6 1.5s-.2 1.1-.2 1.8c0 .6.1 1.1.2 1.7.1.6.3 1 .6 1.5.3.4.7.8 1.2 1.1.5.3 1.1.4 1.8.4.6 0 1.2-.1 1.6-.4.5-.3.8-.6 1.1-1.1.3-.4.5-.9.6-1.5.1-.6.2-1.1.2-1.7 0-.6 0-1.2-.2-1.7z" fill="#F0463C"/><path fill="#2F2F2F" d="M401.4 285.5c.6-1.9 1.9-3.5 3.9-4.4 2.1-.9 4-1.4 5.8-1.8l6.8-19.3c.1-.4.3-1.3.3-1.8 0-2.2-1.7-4.1-4.2-4.1-2.4 0-3.7 1.5-4.3 3.4l-5 16.2-5-16.1c-.6-2.1-2.3-3.6-4.6-3.6h-.5c-2.3 0-4 1.5-4.6 3.6l-5 16-4.9-16.1c-.6-2.1-2.1-3.5-4.4-3.5-2.7 0-4.3 2-4.3 4.1 0 .8.2 1.7.4 2.2l7.8 22.4c1 2.8 2.8 4 5 4h.3c2.2 0 4-1.3 4.9-3.8l5.1-16 5 16c.3 1.2.9 2 1.5 2.6z"/><path fill="#46BEB9" d="M429.6 284.3c1.4 1 2.9 2 3.5 2 1 0 2.3-.9 4.3-2.2 2.5-1.7 6-4.1 10.7-4.9 1.6-2.6 2.6-5.6 2.6-8.8v-.1c0-9.1-7.3-16.4-17.1-16.4-9.9 0-17.2 7.4-17.2 16.5v.1c0 3.2.9 6.2 2.5 8.7 4.9.9 8.3 3.3 10.7 5.1zm-4.2-14c0-4.7 3.1-8.6 8.2-8.6 5 0 8.3 4.1 8.3 8.8v.1c0 4.7-3.1 8.6-8.2 8.6-5 0-8.3-4.1-8.3-8.8v-.1z"/><path fill="#2F2F2F" d="M467.2 254.1c-2.7 0-4.8 2.9-6.1 5.9v-1.4c0-2.5-2-4.5-4.5-4.5s-4.5 2-4.5 4.5v20.4c2.7.1 5.7.7 9 2.1v-7.4c0-6.4 2.5-9.9 7.1-11 1.8-.4 3.4-1.8 3.4-4.2 0-2.5-1.6-4.4-4.4-4.4zm35.8 28c0 2.5-2 4.5-4.5 4.5s-4.5-2-4.5-4.5v-.4c-2.2 3-5.2 5.1-9.9 5.1-7.4 0-14.4-5.8-14.4-16.4v-.1c0-10.6 6.9-16.4 14.4-16.4 4.8 0 7.8 2.2 9.9 4.7v-11.5c0-2.5 2-4.5 4.5-4.5s4.5 2 4.5 4.5v35zm-24.4-11.8v.1c0 5.3 3.5 8.8 7.8 8.8s7.7-3.5 7.7-8.8v-.1c0-5.3-3.5-8.8-7.7-8.8s-7.8 3.5-7.8 8.8zm42.2 16.6c-9.5 0-16.6-6.7-16.6-16.4v-.1c0-9.1 6.5-16.5 15.7-16.5 10.6 0 15.3 8.7 15.3 15.3 0 2.6-1.8 4.3-4.2 4.3h-17.8c.9 4.1 3.7 6.2 7.8 6.2 2.5 0 4.6-.8 6.4-2.1.6-.5 1.3-.7 2.2-.7 2 0 3.5 1.5 3.5 3.5 0 1.2-.5 2.1-1.2 2.7-2.8 2.3-6.5 3.8-11.1 3.8zm5.8-19c-.5-4-2.9-6.7-6.7-6.7-3.7 0-6.2 2.7-6.9 6.7h13.6zm10.3-9.3c0-2.5 2-4.5 4.5-4.5s4.5 2 4.5 4.5v1.4c1.3-3.1 3.4-5.9 6.1-5.9 2.8 0 4.4 1.8 4.4 4.4 0 2.4-1.5 3.8-3.4 4.2-4.6 1.1-7.1 4.6-7.1 11v8.4c0 2.5-2 4.5-4.5 4.5s-4.5-2-4.5-4.5v-23.5zm24.5 36.4c-1.3-.5-2.9-1.5-2.9-3.7s1.7-3.7 3.5-3.7c.7 0 1.1.1 1.5.2.8.2 1.3.3 1.9.3 1.6 0 2.4-.3 3.2-1.9l.3-.7-10.8-25.1c-.2-.6-.5-1.5-.5-2.1 0-2.5 1.9-4.3 4.4-4.3 2.2 0 3.5 1.3 4.3 3.4l6.9 18.5 6.6-18.4c.7-1.9 2-3.4 4.3-3.4s4.3 1.8 4.3 4.1c0 .7-.2 1.7-.4 2.1l-11 26.7c-2.7 6.5-5.3 8.9-10.7 8.9-2 0-3.4-.3-4.9-.9z"/><path fill="#46BEB9" d="M433.2 297.2c-4.2 0-7.2-2.1-9.9-4-3.8-2.7-6.8-4.8-13.8-1.9-2.1.9-4.5-.1-5.4-2.2-.9-2.1.1-4.5 2.2-5.4 11.2-4.6 17.5-.2 21.7 2.8 2.2 1.5 3.6 2.5 5.1 2.5 1.8 0 3.4-1 5.9-2.7 4.5-3.1 10.6-7.3 21.4-2.6 2.1.9 3.1 3.3 2.2 5.4-.9 2.1-3.3 3.1-5.4 2.2-6.6-2.8-9.5-.9-13.4 1.8-2.9 1.9-6.2 4.1-10.6 4.1z"/></svg>